Looper 2012 TS x264 AAC - TODE

 
http://www.imdb.com/title/tt1276104/


Plot: In 2072, when the mob wants to get rid of someone, the target is sent 30 years into the past, where a hired gun awaits. Someone like Joe, who one day 
learns the mob wants to 'close the loop' by transporting back Joe's future self.


Director: 
Rian Johnson

Writer: 
Rian Johnson

Stars:
Joseph Gordon-Levitt, Bruce Willis and Emily Blunt

Genres:
Action | Sci-Fi | Thriller 

Country:
USA |China 


Format                                   : MPEG-4
Format profile                           : Base Media
Codec ID                                 : isom
File size                                : 698 MiB
Duration                                 : 1h 49mn
Overall bit rate                         : 891 Kbps
Encoded date                             : UTC 2011-12-31 00:00:00
Tagged date                              : UTC 2011-12-31 00:00:00
Writing application                      : Lavf54.26.100

Video
ID                                       : 1
Format                                   : AVC
Format/Info                              : Advanced Video Codec
Format profile                           : Main@L4.1
Format settings, CABAC                   : Yes
Format settings, ReFrames                : 2 frames
Codec ID                                 : avc1
Codec ID/Info                            : Advanced Video Coding
Duration                                 : 1h 49mn
Bit rate                                 : 820 Kbps
Width                                    : 640 pixels
Height                                   : 256 pixels
Display aspect ratio                     : 2.573
Original display aspect ratio            : 2.571
Frame rate mode                          : Constant
Frame rate                               : 25.000 fps
Color space                              : YUV
Chroma subsampling                       : 4:2:0
Bit depth                                : 8 bits
Scan type                                : Progressive
Bits/(Pixel*Frame)                       : 0.200
Stream size                              : 643 MiB (92%)
Writing library                          : x264 core 128 r2208
Encoded date                             : UTC 2011-12-31 00:00:00
Tagged date                              : UTC 2011-12-31 00:00:00

Audio
ID                                       : 2
Format                                   : AAC
Format/Info                              : Advanced Audio Codec
Format profile                           : LC
Codec ID                                 : 40
Duration                                 : 1h 49mn
Duration_LastFrame                       : -6ms
Bit rate mode                            : Constant
Bit rate                                 : 64.0 Kbps
Channel(s)                               : 2 channels
Channel positions                        : Front: L R
Sampling rate                            : 44.1 KHz
Compression mode                         : Lossy
Delay relative to video                  : -1ms
Stream size                              : 50.1 MiB (7%)
Encoded date                             : UTC 2011-12-31 00:00:00
Tagged date                              : UTC 2011-12-31 00:00:00


Poster:

 
http://www.shotpix.com/images/89164241889405501304.jpg


Screenshots:

 
http://www.shotpix.com/images/74735571155635723740.png

 
http://www.shotpix.com/images/17746969220786015258.png

 
http://www.shotpix.com/images/91709369450076226590.png


ENJOY!